<svg id="markmap" style="" xmlns="http://www.w3.org/2000/svg" class="markmap"><style>.markmap a { fill: #0097e6; }
.markmap a:hover { fill: #00a8ff; }
.markmap path { fill: none; }
.markmap text { font: 300 16px sans-serif }
.markmap tspan.markmap-em { font-style: italic; }
.markmap tspan.markmap-strong { font-weight: 500; }
.markmap g &gt; g { cursor: pointer; }
</style><g transform="translate(112.3820417585057,201.54327392578125) scale(0.9733303255648225)"><path d="M81.32815551757812,10C121.32815551757812,10,121.32815551757812,-165,161.32815551757812,-165" stroke="rgb(31, 119, 180)" stroke-width="2"></path><path d="M81.32815551757812,10C121.32815551757812,10,121.32815551757812,-140,161.32815551757812,-140" stroke="rgb(255, 127, 14)" stroke-width="2"></path><path d="M81.32815551757812,10C121.32815551757812,10,121.32815551757812,-115,161.32815551757812,-115" stroke="rgb(44, 160, 44)" stroke-width="2"></path><path d="M81.32815551757812,10C121.32815551757812,10,121.32815551757812,-90,161.32815551757812,-90" stroke="rgb(214, 39, 40)" stroke-width="2"></path><path d="M81.32815551757812,10C121.32815551757812,10,121.32815551757812,-65,161.32815551757812,-65" stroke="rgb(148, 103, 189)" stroke-width="2"></path><path d="M81.32815551757812,10C121.32815551757812,10,121.32815551757812,-40,161.32815551757812,-40" stroke="rgb(140, 86, 75)" stroke-width="2"></path><path d="M81.32815551757812,10C121.32815551757812,10,121.32815551757812,-15,161.32815551757812,-15" stroke="rgb(227, 119, 194)" stroke-width="2"></path><path d="M81.32815551757812,10C121.32815551757812,10,121.32815551757812,10,161.32815551757812,10" stroke="rgb(127, 127, 127)" stroke-width="2"></path><path d="M81.32815551757812,10C121.32815551757812,10,121.32815551757812,35,161.32815551757812,35" stroke="rgb(188, 189, 34)" stroke-width="2"></path><path d="M81.32815551757812,10C121.32815551757812,10,121.32815551757812,60,161.32815551757812,60" stroke="rgb(23, 190, 207)" stroke-width="2"></path><path d="M81.32815551757812,10C121.32815551757812,10,121.32815551757812,85,161.32815551757812,85" stroke="rgb(31, 119, 180)" stroke-width="2"></path><path d="M81.32815551757812,10C121.32815551757812,10,121.32815551757812,110,161.32815551757812,110" stroke="rgb(23, 190, 207)" stroke-width="2"></path><path d="M81.32815551757812,10C121.32815551757812,10,121.32815551757812,135,161.32815551757812,135" stroke="rgb(255, 127, 14)" stroke-width="2"></path><path d="M81.32815551757812,10C121.32815551757812,10,121.32815551757812,160,161.32815551757812,160" stroke="rgb(44, 160, 44)" stroke-width="2"></path><path d="M81.32815551757812,10C121.32815551757812,10,121.32815551757812,185,161.32815551757812,185" stroke="rgb(214, 39, 40)" stroke-width="2"></path><g transform="translate(161.32815551757812, 165)"><rect x="-1" y="19" width="52.14405822753906" height="2" fill="rgb(214, 39, 40)"></rect><text x="8" y="16" text-anchor="start" fill-opacity="1"><tspan class="">MTP</tspan></text></g><g transform="translate(161.32815551757812, 140)"><rect x="-1" y="19" width="113.76020812988281" height="2" fill="rgb(44, 160, 44)"></rect><text x="8" y="16" text-anchor="start" fill-opacity="1"><tspan class="">MPEG-DASH</tspan></text></g><g transform="translate(161.32815551757812, 115)"><rect x="-1" y="19" width="49.216064453125" height="2" fill="rgb(255, 127, 14)"></rect><text x="8" y="16" text-anchor="start" fill-opacity="1"><tspan class="">HLS</tspan></text></g><g transform="translate(161.32815551757812, 90)"><rect x="-1" y="19" width="60.62408447265625" height="2" fill="rgb(23, 190, 207)"></rect><text x="8" y="16" text-anchor="start" fill-opacity="1"><tspan class="">RTSP</tspan></text></g><g transform="translate(161.32815551757812, 65)"><rect x="-1" y="19" width="63.48808288574219" height="2" fill="rgb(31, 119, 180)"></rect><text x="8" y="16" text-anchor="start" fill-opacity="1"><tspan class="">RTMP</tspan></text></g><g transform="translate(161.32815551757812, 40)"><rect x="-1" y="19" width="75.55210876464844" height="2" fill="rgb(23, 190, 207)"></rect><text x="8" y="16" text-anchor="start" fill-opacity="1"><tspan class="">IGMPv3</tspan></text></g><g transform="translate(161.32815551757812, 15)"><rect x="-1" y="19" width="61.00810241699219" height="2" fill="rgb(188, 189, 34)"></rect><text x="8" y="16" text-anchor="start" fill-opacity="1"><tspan class="">SSDP</tspan></text></g><g transform="translate(161.32815551757812, -10)"><rect x="-1" y="19" width="145.48825073242188" height="2" fill="rgb(127, 127, 127)"></rect><text x="8" y="16" text-anchor="start" fill-opacity="1"><tspan class="">TLSv1.2, TLSv1.3</tspan></text></g><g transform="translate(161.32815551757812, -35)"><rect x="-1" y="19" width="51.52008056640625" height="2" fill="rgb(227, 119, 194)"></rect><text x="8" y="16" text-anchor="start" fill-opacity="1"><tspan class="">DNS</tspan></text></g><g transform="translate(161.32815551757812, -60)"><rect x="-1" y="19" width="50.496063232421875" height="2" fill="rgb(140, 86, 75)"></rect><text x="8" y="16" text-anchor="start" fill-opacity="1"><tspan class="">ARP</tspan></text></g><g transform="translate(161.32815551757812, -85)"><rect x="-1" y="19" width="51.18406677246094" height="2" fill="rgb(148, 103, 189)"></rect><text x="8" y="16" text-anchor="start" fill-opacity="1"><tspan class="">UDP</tspan></text></g><g transform="translate(161.32815551757812, -110)"><rect x="-1" y="19" width="32.94403076171875" height="2" fill="rgb(214, 39, 40)"></rect><text x="8" y="16" text-anchor="start" fill-opacity="1"><tspan class="">IP</tspan></text></g><g transform="translate(161.32815551757812, -135)"><rect x="-1" y="19" width="49.952056884765625" height="2" fill="rgb(44, 160, 44)"></rect><text x="8" y="16" text-anchor="start" fill-opacity="1"><tspan class="">TCP</tspan></text></g><g transform="translate(161.32815551757812, -160)"><rect x="-1" y="19" width="188.03236389160156" height="2" fill="rgb(255, 127, 14)"></rect><text x="8" y="16" text-anchor="start" fill-opacity="1"><tspan class="">ICMP, ICMPv3, ICMPv6</tspan></text></g><g transform="translate(161.32815551757812, -185)"><rect x="-1" y="19" width="60.256072998046875" height="2" fill="rgb(31, 119, 180)"></rect><text x="8" y="16" text-anchor="start" fill-opacity="1"><tspan class="">HTTP</tspan></text></g><g transform="translate(0,-10)"><rect x="-1" y="18" width="83.32815551757812" height="4" fill="rgb(31, 119, 180)"></rect><circle stroke-width="1.5" cx="81.32815551757812" cy="20" r="6" stroke="rgb(31, 119, 180)" fill="rgb(255, 255, 255)"></circle><text x="8" y="16" text-anchor="start" fill-opacity="1"><tspan class="">Protocols</tspan></text></g></g></svg>